<svg xmlns="http://www.w3.org/2000/svg" width="55.273" height="55.303" viewBox="0 0 55.273 55.303">
  <g id="down-arrow" transform="translate(-68.168 66.058) rotate(-90)">
    <g id="Group_6" data-name="Group 6" transform="translate(10.755 68.168)">
      <path id="Path_9" data-name="Path 9" d="M53.1,17.04A27.094,27.094,0,0,0,38.371,2.375a27.2,27.2,0,0,0-21.468,0A27.234,27.234,0,0,0,2.177,17.04a27.626,27.626,0,0,0,0,21.5A27.29,27.29,0,0,0,16.9,53.234a27.209,27.209,0,0,0,21.468,0A27.153,27.153,0,0,0,53.1,38.539a27.276,27.276,0,0,0,0-21.5Zm-3.084,20.2a24.338,24.338,0,0,1-5.171,7.771,25.069,25.069,0,0,1-7.771,5.17,23.415,23.415,0,0,1-9.434,1.935A23.637,23.637,0,0,1,15.48,48.85,24.325,24.325,0,0,1,6.621,39.99,23.866,23.866,0,0,1,3.356,27.774,23.633,23.633,0,0,1,6.622,15.619a24.4,24.4,0,0,1,8.86-8.859A23.638,23.638,0,0,1,27.637,3.494a23.415,23.415,0,0,1,9.434,1.935,25.086,25.086,0,0,1,7.771,5.2,24.292,24.292,0,0,1,5.171,7.741,23.508,23.508,0,0,1,1.935,9.4A23.821,23.821,0,0,1,50.012,37.239Z" transform="translate(0 -0.168)" fill="#fff"/>
      <path id="Path_10" data-name="Path 10" d="M153.4,226.353l-13.486,13.425L126.1,226.293a1.689,1.689,0,1,0-2.358,2.419L138.8,243.377a1.717,1.717,0,0,0,2.358,0l14.6-14.665a1.6,1.6,0,0,0,.484-1.179,1.426,1.426,0,0,0-.484-1.179A1.594,1.594,0,0,0,153.4,226.353Z" transform="translate(-112.1 -205.43)" fill="#fff"/>
    </g>
  </g>
</svg>
