<svg xmlns="http://www.w3.org/2000/svg" width="74" height="74" viewBox="0 0 74 74">
  <path id="fence" d="M71.533,24.667A2.467,2.467,0,0,0,74,22.2V7.4a2.467,2.467,0,0,0-2.467-2.467H66.6V2.467A2.467,2.467,0,0,0,64.133,0H61.667A2.467,2.467,0,0,0,59.2,2.467V4.933H14.8V2.467A2.467,2.467,0,0,0,12.333,0H9.867A2.467,2.467,0,0,0,7.4,2.467V4.933H2.467A2.467,2.467,0,0,0,0,7.4V22.2a2.467,2.467,0,0,0,2.467,2.467H7.4V29.6H2.467A2.467,2.467,0,0,0,0,32.067v14.8a2.467,2.467,0,0,0,2.467,2.467H7.4V66.6H4.933a2.467,2.467,0,0,0-2.467,2.467v2.467A2.467,2.467,0,0,0,4.933,74H17.267a2.467,2.467,0,0,0,2.467-2.467V69.067A2.467,2.467,0,0,0,17.267,66.6H14.8V49.333H59.2V66.6H56.733a2.467,2.467,0,0,0-2.467,2.467v2.467A2.467,2.467,0,0,0,56.733,74H69.067a2.467,2.467,0,0,0,2.467-2.467V69.067A2.467,2.467,0,0,0,69.067,66.6H66.6V49.333h4.933A2.467,2.467,0,0,0,74,46.867v-14.8A2.467,2.467,0,0,0,71.533,29.6H66.6V24.667Zm0-2.467H60.363L70.935,7.4h.6ZM38.163,46.867l10.572-14.8h9.3l-10.572,14.8Zm-23.433,0L25.3,32.067H35.837l-10.572,14.8ZM59.2,29.6H14.8V24.667H59.2ZM35.837,7.4,25.265,22.2H14.73L25.3,7.4Zm22.2,0L47.465,22.2h-9.3L48.735,7.4Zm3.032,0H67.9L57.331,22.2H50.5ZM35.131,22.2H28.3L38.869,7.4H45.7ZM61.667,2.467h2.467V4.933H61.667Zm-51.8,0h2.467V4.933H9.867ZM12.4,7.4,2.467,21.311V7.4Zm3.032,0H22.27L11.7,22.2H4.863ZM9.867,24.667h2.467V29.6H9.867Zm2.537,7.4L2.467,45.977V32.067Zm3.032,0H22.27L11.7,46.867H4.863Zm1.831,39.467H4.933V69.067H17.267ZM12.333,66.6H9.867V49.333h2.467ZM28.3,46.867l10.572-14.8H45.7l-10.572,14.8Zm22.2,0,10.572-14.8H67.9l-10.572,14.8Zm18.57,24.667H56.733V69.067H69.067ZM64.133,66.6H61.667V49.333h2.467Zm7.4-19.733H60.363l10.572-14.8h.6ZM64.133,29.6H61.667V24.667h2.467Zm0,0" fill="#fff"/>
</svg>
