<svg xmlns="http://www.w3.org/2000/svg" width="100.332" height="74" viewBox="0 0 100.332 74">
  <g id="gate" transform="translate(0 -67.187)">
    <g id="Group_5" data-name="Group 5" transform="translate(0 67.187)">
      <g id="Group_4" data-name="Group 4">
        <rect id="Rectangle_15" data-name="Rectangle 15" width="18.623" height="3.084" transform="translate(0 70.916)" fill="#fff"/>
        <path id="Path_6" data-name="Path 6" d="M18.623,70.314H10.792V67.187H7.708v3.127H0V73.4H18.623Z" transform="translate(0 -67.187)" fill="#fff"/>
        <rect id="Rectangle_16" data-name="Rectangle 16" width="18.623" height="3.084" transform="translate(81.709 70.916)" fill="#fff"/>
        <path id="Path_7" data-name="Path 7" d="M427.757,70.314V67.187h-3.084v3.127h-7.708V73.4h18.623V70.314Z" transform="translate(-335.256 -67.187)" fill="#fff"/>
        <path id="Path_8" data-name="Path 8" d="M81.709,152.456v3.084h18.5v-3.084H98.668v-55.5h1.541V93.872h-18.5v3.084H83.25v7.708h-4.5V98.5H75.665v6.166H67.957v-9.25H64.873v9.25H57.165V90.789H54.081v13.875H46.373V90.789H43.29v13.875H35.582v-9.25H32.5v9.25H24.79V98.5H21.706v6.166H16.959V96.956H18.5V93.872H0v3.084H1.541v55.5H0v3.084H18.5v-3.084H16.959v-3.082h4.747v9.25H78.749v-9.25h4.5v3.083Zm4.625-55.5h9.25v43.167h-9.25Zm0,46.251h9.25v9.249h-9.25Zm-72.46,9.249H4.625v-9.249h9.25Zm0-12.333H4.625V96.956h9.25Zm7.831,6.167H16.959V107.748h4.747v38.541Zm10.792,9.25H24.79v-6.166H32.5Zm0-9.25H24.79V107.748H32.5Zm10.792,9.25H35.582v-6.166H43.29Zm0-9.25H35.582V126.618a6.922,6.922,0,0,0,7.708,0Zm-3.854-21.584a3.854,3.854,0,1,1,3.854-3.854A3.858,3.858,0,0,1,39.436,124.706Zm3.854-9.62a6.922,6.922,0,0,0-7.708,0v-7.338H43.29Zm10.792,40.453H46.374v-6.166h7.708Zm0-9.25H46.374V126.618a6.922,6.922,0,0,0,7.708,0v19.672Zm-3.854-21.584a3.854,3.854,0,1,1,3.854-3.854A3.858,3.858,0,0,1,50.228,124.706Zm3.854-9.62a6.922,6.922,0,0,0-7.708,0v-7.338h7.708Zm10.792,40.453H57.165v-6.166h7.708Zm0-9.25H57.165V126.618a6.922,6.922,0,0,0,7.708,0v19.672Zm-3.854-21.584a3.854,3.854,0,1,1,3.854-3.854A3.858,3.858,0,0,1,61.019,124.706Zm3.854-9.62a6.922,6.922,0,0,0-7.708,0v-7.338h7.708Zm10.792,40.453H67.957v-6.166h7.708Zm0-9.25H67.957V107.748h7.708Zm3.084,0V107.748h4.5v38.541Z" transform="translate(0 -86.164)" fill="#fff"/>
      </g>
    </g>
  </g>
</svg>
