<svg xmlns="http://www.w3.org/2000/svg" width="80.734" height="73.903" viewBox="0 0 80.734 73.903">
  <g id="shed" transform="translate(0.001 -0.008)">
    <path id="Path_1" data-name="Path 1" d="M80.262,28.257,41.07.217a1.122,1.122,0,0,0-1.3,0L.47,28.256a1.121,1.121,0,1,0,1.3,1.826l6.375-4.549V72.789A1.121,1.121,0,0,0,9.269,73.91H15.3a1.121,1.121,0,0,0,1.121-1.121V38.824h47.88V72.789a1.121,1.121,0,0,0,1.121,1.121h6.036a1.121,1.121,0,0,0,1.121-1.121V25.521l6.374,4.56a1.121,1.121,0,1,0,1.3-1.824ZM64.305,30.276H16.425V25.643H64.305ZM16.425,36.581V32.518H64.305v4.063ZM70.341,71.668H66.548V24.522A1.121,1.121,0,0,0,65.427,23.4H15.3a1.121,1.121,0,0,0-1.121,1.121V71.668H10.389V23.933L40.417,2.507,70.341,23.916Zm0,0" transform="translate(0)" fill="#fff"/>
    <path id="Path_2" data-name="Path 2" d="M146.083,367.215a2.97,2.97,0,1,0,2.97,2.97A2.969,2.969,0,0,0,146.083,367.215Zm0,3.7a.727.727,0,1,1,.727-.727.727.727,0,0,1-.727.727Zm0,0" transform="translate(-120.19 -308.387)" fill="#fff"/>
    <path id="Path_3" data-name="Path 3" d="M326.783,367.215a2.97,2.97,0,1,0,2.97,2.97A2.97,2.97,0,0,0,326.783,367.215Zm0,3.7a.727.727,0,1,1,.727-.727.727.727,0,0,1-.727.727Zm0,0" transform="translate(-271.945 -308.387)" fill="#fff"/>
    <path id="Path_4" data-name="Path 4" d="M120.323,289.336l1.039,8.209a2.909,2.909,0,0,0,2.019,2.686V302.5a2.015,2.015,0,0,0,2.013,2.013H128.1a2.015,2.015,0,0,0,2.013-2.013V300.37H152.7V302.5a2.015,2.015,0,0,0,2.013,2.013h2.707a2.015,2.015,0,0,0,2.013-2.013v-2.283a2.909,2.909,0,0,0,1.974-2.666l1.084-8.206a1.145,1.145,0,0,0,.01-.147,4.807,4.807,0,0,0-1.055-3.027,1.121,1.121,0,0,0-.418-2.161h-2.452l-2.865-5.28c-1.075-1.926-2.654-4.137-5.355-4.137H132.607c-2.187,0-4.11,1.474-5.418,4.152L124.221,284l-2.437.005a1.121,1.121,0,0,0-.449,2.146,4.883,4.883,0,0,0-1.021,3.042,1.08,1.08,0,0,0,.008.142Zm7.55,12.931h-2.249v-1.9h2.249Zm27.073,0v-1.9h2.248v1.9Zm4.232-4.949a1.152,1.152,0,0,0-.01.147.671.671,0,0,1-.662.662h-34.24a.671.671,0,0,1-.662-.662,1.181,1.181,0,0,0-.009-.141l-1.037-8.195a2.2,2.2,0,0,1,1.88-2.318c.038,0,.076.007.113.008h33.664a2.231,2.231,0,0,1,2.045,2.308ZM147.26,284.576a2.575,2.575,0,0,1,4.747,0Zm-18.1-4.762a.573.573,0,0,0,.032-.062c.529-1.091,1.676-2.92,3.416-2.92H150.36c1.213,0,2.228.894,3.389,2.976l2.587,4.769h-1.988a4.818,4.818,0,0,0-9.427,0h-18.45Zm0,0" transform="translate(-101.043 -230.599)" fill="#fff"/>
    <path id="Path_5" data-name="Path 5" d="M210.274,364.319a3.808,3.808,0,0,0-3.419-2.448H195.584a3.766,3.766,0,0,0-3.4,2.468l-.564,1.729a1.121,1.121,0,0,0,1.066,1.469H209.8a1.121,1.121,0,0,0,1.062-1.482Zm-16.046.975.085-.26a1.513,1.513,0,0,1,1.271-.922h11.271a1.554,1.554,0,0,1,1.3.929l.086.253Zm0,0" transform="translate(-160.877 -303.899)" fill="#fff"/>
  </g>
</svg>
